<svg width="130" height="130" viewBox="0 0 130 130" fill="none" xmlns="http://www.w3.org/2000/svg">
<circle cx="65" cy="65" r="65" fill="#0C2C43"/>
<path d="M80.2375 81.5C76.2444 81.5 72.2993 80.6677 68.4021 79.003C64.5049 77.3383 60.959 74.9776 57.7646 71.9208C54.5701 68.8641 52.1027 65.4724 50.3624 61.7458C48.6221 58.0193 47.7513 54.2457 47.75 50.425C47.75 49.875 47.9417 49.4167 48.325 49.05C48.7083 48.6833 49.1875 48.5 49.7625 48.5H57.525C57.9722 48.5 58.3715 48.6454 58.7229 48.9363C59.0743 49.2272 59.2819 49.5707 59.3458 49.9667L60.5917 56.3833C60.6556 56.8722 60.6396 57.2847 60.5437 57.6208C60.4479 57.9569 60.2722 58.2472 60.0167 58.4917L55.3687 62.9833C56.0076 64.1139 56.766 65.2059 57.6438 66.2595C58.5217 67.3131 59.4883 68.3293 60.5437 69.3083C61.534 70.2556 62.5722 71.1343 63.6583 71.9447C64.7444 72.755 65.8944 73.4957 67.1083 74.1667L71.6125 69.8583C71.9 69.5833 72.2757 69.3774 72.7395 69.2405C73.2033 69.1036 73.6582 69.0651 74.1042 69.125L80.7167 70.4083C81.1639 70.5306 81.5312 70.7524 81.8187 71.0738C82.1062 71.3953 82.25 71.754 82.25 72.15V79.575C82.25 80.125 82.0583 80.5833 81.675 80.95C81.2917 81.3167 80.8125 81.5 80.2375 81.5Z" fill="white"/>
</svg>
