<svg width="132" height="35" viewBox="0 0 132 35" fill="none" xmlns="http://www.w3.org/2000/svg">
<path d="M50.2642 26V11.4545H53.3395V23.4645H59.5753V26H50.2642ZM61.555 26V15.0909H64.5806V26H61.555ZM63.0749 13.6847C62.6251 13.6847 62.2392 13.5355 61.9173 13.2372C61.6 12.9342 61.4414 12.572 61.4414 12.1506C61.4414 11.7339 61.6 11.3764 61.9173 11.0781C62.2392 10.7751 62.6251 10.6236 63.0749 10.6236C63.5247 10.6236 63.9083 10.7751 64.2255 11.0781C64.5475 11.3764 64.7085 11.7339 64.7085 12.1506C64.7085 12.572 64.5475 12.9342 64.2255 13.2372C63.9083 13.5355 63.5247 13.6847 63.0749 13.6847ZM70.0298 19.6932V26H67.0043V15.0909H69.8878V17.0156H70.0156C70.2571 16.3812 70.6619 15.8793 71.2301 15.5099C71.7983 15.1359 72.4872 14.9489 73.2969 14.9489C74.0545 14.9489 74.715 15.1146 75.2784 15.446C75.8419 15.7775 76.2798 16.2509 76.5923 16.8665C76.9048 17.4773 77.0611 18.2064 77.0611 19.054V26H74.0355V19.5938C74.0402 18.9261 73.8698 18.4053 73.5241 18.0312C73.1785 17.6525 72.7027 17.4631 72.0966 17.4631C71.6894 17.4631 71.3295 17.5507 71.017 17.7259C70.7093 17.901 70.4678 18.1567 70.2926 18.4929C70.1222 18.8243 70.0346 19.2244 70.0298 19.6932ZM82.1871 22.8608L82.1942 19.2315H82.6346L86.1289 15.0909H89.6019L84.9073 20.5739H84.19L82.1871 22.8608ZM79.4457 26V11.4545H82.4712V26H79.4457ZM86.2638 26L83.0536 21.2486L85.0707 19.1108L89.8079 26H86.2638ZM95.6087 26.2131C94.4865 26.2131 93.5206 25.9858 92.7109 25.5312C91.906 25.072 91.2857 24.4233 90.8501 23.5852C90.4145 22.7424 90.1967 21.7457 90.1967 20.5952C90.1967 19.473 90.4145 18.4882 90.8501 17.6406C91.2857 16.7931 91.8989 16.1326 92.6896 15.6591C93.4851 15.1856 94.4179 14.9489 95.4879 14.9489C96.2076 14.9489 96.8776 15.0649 97.4979 15.2969C98.1229 15.5241 98.6674 15.8674 99.1314 16.3267C99.6001 16.786 99.9647 17.3636 100.225 18.0597C100.486 18.7509 100.616 19.5606 100.616 20.4886V21.3196H91.4041V19.4446H97.7678C97.7678 19.009 97.6731 18.6231 97.4837 18.2869C97.2943 17.9508 97.0315 17.688 96.6953 17.4986C96.3639 17.3045 95.978 17.2074 95.5376 17.2074C95.0784 17.2074 94.6712 17.3139 94.3161 17.527C93.9657 17.7353 93.6911 18.017 93.4922 18.3722C93.2933 18.7225 93.1915 19.1132 93.1868 19.544V21.3267C93.1868 21.8665 93.2862 22.3329 93.4851 22.7259C93.6887 23.1188 93.9751 23.4219 94.3445 23.6349C94.7138 23.848 95.1518 23.9545 95.6584 23.9545C95.9946 23.9545 96.3023 23.9072 96.5817 23.8125C96.861 23.7178 97.1001 23.5758 97.299 23.3864C97.4979 23.197 97.6494 22.965 97.7536 22.6903L100.552 22.875C100.41 23.5473 100.119 24.1345 99.6783 24.6364C99.2427 25.1335 98.6792 25.5218 97.9879 25.8011C97.3014 26.0758 96.5083 26.2131 95.6087 26.2131ZM106.61 26.1776C105.781 26.1776 105.031 25.9645 104.359 25.5384C103.691 25.1075 103.161 24.4754 102.768 23.642C102.379 22.804 102.185 21.7765 102.185 20.5597C102.185 19.3097 102.387 18.2704 102.789 17.4418C103.192 16.6084 103.727 15.9858 104.394 15.5739C105.067 15.1572 105.803 14.9489 106.603 14.9489C107.214 14.9489 107.723 15.053 108.13 15.2614C108.542 15.465 108.873 15.7206 109.124 16.0284C109.38 16.3314 109.574 16.6297 109.707 16.9233H109.799V11.4545H112.817V26H109.835V24.2528H109.707C109.565 24.5559 109.363 24.8565 109.103 25.1548C108.847 25.4484 108.513 25.6922 108.102 25.8864C107.694 26.0805 107.197 26.1776 106.61 26.1776ZM107.569 23.7699C108.057 23.7699 108.469 23.6373 108.805 23.3722C109.146 23.1023 109.406 22.7259 109.586 22.2429C109.771 21.7599 109.863 21.1941 109.863 20.5455C109.863 19.8968 109.773 19.3333 109.593 18.8551C109.413 18.3769 109.153 18.0076 108.812 17.7472C108.471 17.4867 108.057 17.3565 107.569 17.3565C107.072 17.3565 106.653 17.4915 106.312 17.7614C105.971 18.0312 105.713 18.4053 105.538 18.8835C105.362 19.3617 105.275 19.9157 105.275 20.5455C105.275 21.1799 105.362 21.741 105.538 22.2287C105.718 22.7116 105.976 23.0904 106.312 23.3651C106.653 23.6349 107.072 23.7699 107.569 23.7699ZM115.305 26V15.0909H118.331V26H115.305ZM116.825 13.6847C116.375 13.6847 115.989 13.5355 115.667 13.2372C115.35 12.9342 115.191 12.572 115.191 12.1506C115.191 11.7339 115.35 11.3764 115.667 11.0781C115.989 10.7751 116.375 10.6236 116.825 10.6236C117.275 10.6236 117.658 10.7751 117.975 11.0781C118.297 11.3764 118.458 11.7339 118.458 12.1506C118.458 12.572 118.297 12.9342 117.975 13.2372C117.658 13.5355 117.275 13.6847 116.825 13.6847ZM123.78 19.6932V26H120.754V15.0909H123.638V17.0156H123.766C124.007 16.3812 124.412 15.8793 124.98 15.5099C125.548 15.1359 126.237 14.9489 127.047 14.9489C127.804 14.9489 128.465 15.1146 129.028 15.446C129.592 15.7775 130.03 16.2509 130.342 16.8665C130.655 17.4773 130.811 18.2064 130.811 19.054V26H127.786V19.5938C127.79 18.9261 127.62 18.4053 127.274 18.0312C126.929 17.6525 126.453 17.4631 125.847 17.4631C125.439 17.4631 125.08 17.5507 124.767 17.7259C124.459 17.901 124.218 18.1567 124.043 18.4929C123.872 18.8243 123.785 19.2244 123.78 19.6932Z" fill="white"/>
<path d="M29.8185 29.8258H24.6355V21.7043C24.6355 19.7676 24.5963 17.2754 21.9347 17.2754C19.2325 17.2754 18.8197 19.3828 18.8197 21.5614V29.8258H13.6368V13.125H18.6155V15.4014H18.6826C19.3783 14.0889 21.07 12.7035 23.5972 12.7035C28.8488 12.7035 29.82 16.1599 29.82 20.6588L29.8185 29.8258ZM7.78312 10.8398C6.11479 10.8398 4.77458 9.48938 4.77458 7.82833C4.77458 6.16875 6.11624 4.81979 7.78312 4.81979C9.44561 4.81979 10.7931 6.16875 10.7931 7.82833C10.7931 9.48938 9.44416 10.8398 7.78312 10.8398ZM10.3819 29.8258H5.18437V13.125H10.3819V29.8258ZM32.4114 0H2.58271C1.155 0 0 1.12875 0 2.52146V32.4786C0 33.8726 1.155 35 2.58271 35H32.4071C33.8333 35 35 33.8726 35 32.4786V2.52146C35 1.12875 33.8333 0 32.4071 0H32.4114Z" fill="white"/>
</svg>
