<svg width="106" height="30" viewBox="0 0 106 30" fill="none" xmlns="http://www.w3.org/2000/svg">
<path d="M43.7102 10.9901V8.45455H55.6562V10.9901H51.2031V23H48.1634V10.9901H43.7102ZM58.4688 23L55.5 12.0909H58.5611L60.2514 19.4205H60.3509L62.1122 12.0909H65.1165L66.9062 19.3778H66.9986L68.6605 12.0909H71.7145L68.7528 23H65.5497L63.6747 16.1392H63.5398L61.6648 23H58.4688ZM73.3285 23V12.0909H76.354V23H73.3285ZM74.8484 10.6847C74.3986 10.6847 74.0127 10.5355 73.6907 10.2372C73.3735 9.93419 73.2148 9.57197 73.2148 9.15057C73.2148 8.7339 73.3735 8.37642 73.6907 8.07812C74.0127 7.77509 74.3986 7.62358 74.8484 7.62358C75.2982 7.62358 75.6817 7.77509 75.9989 8.07812C76.3209 8.37642 76.4819 8.7339 76.4819 9.15057C76.4819 9.57197 76.3209 9.93419 75.9989 10.2372C75.6817 10.5355 75.2982 10.6847 74.8484 10.6847ZM84.5803 12.0909V14.3636H78.0107V12.0909H84.5803ZM79.5021 9.47727H82.5277V19.6477C82.5277 19.9271 82.5703 20.1449 82.6555 20.3011C82.7408 20.4527 82.8591 20.5592 83.0107 20.6207C83.1669 20.6823 83.3468 20.7131 83.5504 20.7131C83.6925 20.7131 83.8345 20.7012 83.9766 20.6776C84.1186 20.6491 84.2275 20.6278 84.3033 20.6136L84.7791 22.8651C84.6276 22.9124 84.4145 22.9669 84.1399 23.0284C83.8653 23.0947 83.5315 23.1349 83.1385 23.1491C82.4093 23.1776 81.7701 23.0805 81.2209 22.858C80.6764 22.6354 80.2526 22.2898 79.9496 21.821C79.6465 21.3523 79.4974 20.7604 79.5021 20.0455V9.47727ZM91.4055 23.2131C90.2834 23.2131 89.3175 22.9858 88.5078 22.5312C87.7029 22.072 87.0826 21.4233 86.647 20.5852C86.2114 19.7424 85.9936 18.7457 85.9936 17.5952C85.9936 16.473 86.2114 15.4882 86.647 14.6406C87.0826 13.7931 87.6958 13.1326 88.4865 12.6591C89.282 12.1856 90.2147 11.9489 91.2848 11.9489C92.0045 11.9489 92.6745 12.0649 93.2947 12.2969C93.9197 12.5241 94.4643 12.8674 94.9283 13.3267C95.397 13.786 95.7616 14.3636 96.022 15.0597C96.2824 15.7509 96.4126 16.5606 96.4126 17.4886V18.3196H87.201V16.4446H93.5646C93.5646 16.009 93.4699 15.6231 93.2805 15.2869C93.0911 14.9508 92.8284 14.688 92.4922 14.4986C92.1607 14.3045 91.7749 14.2074 91.3345 14.2074C90.8752 14.2074 90.468 14.3139 90.1129 14.527C89.7625 14.7353 89.4879 15.017 89.2891 15.3722C89.0902 15.7225 88.9884 16.1132 88.9837 16.544V18.3267C88.9837 18.8665 89.0831 19.3329 89.282 19.7259C89.4856 20.1188 89.772 20.4219 90.1413 20.6349C90.5107 20.848 90.9486 20.9545 91.4553 20.9545C91.7914 20.9545 92.0992 20.9072 92.3786 20.8125C92.6579 20.7178 92.897 20.5758 93.0959 20.3864C93.2947 20.197 93.4463 19.965 93.5504 19.6903L96.3487 19.875C96.2067 20.5473 95.9155 21.1345 95.4751 21.6364C95.0395 22.1335 94.4761 22.5218 93.7848 22.8011C93.0982 23.0758 92.3052 23.2131 91.4055 23.2131ZM98.3871 23V12.0909H101.32V13.9943H101.434C101.633 13.3172 101.967 12.8059 102.435 12.4602C102.904 12.1098 103.444 11.9347 104.055 11.9347C104.206 11.9347 104.37 11.9441 104.545 11.9631C104.72 11.982 104.874 12.008 105.006 12.0412V14.7259C104.864 14.6832 104.668 14.6454 104.417 14.6122C104.166 14.5791 103.936 14.5625 103.728 14.5625C103.283 14.5625 102.885 14.6596 102.535 14.8537C102.189 15.0431 101.915 15.3082 101.711 15.6491C101.512 15.9901 101.413 16.383 101.413 16.8281V23H98.3871Z" fill="white"/>
<path d="M36.522 3.51474C35.1543 4.11978 33.7037 4.51717 32.2186 4.69376C33.7833 3.75709 34.9541 2.28359 35.5129 0.547735C34.0427 1.42128 32.4334 2.03611 30.7552 2.36549C29.3385 0.854128 27.3585 -0.00234227 25.287 4.81132e-06C21.1497 4.81132e-06 17.7941 3.35449 17.7941 7.49363C17.7941 8.08085 17.8614 8.65031 17.9874 9.19977C11.7575 8.88613 6.23849 5.90482 2.54177 1.37076C1.87618 2.5143 1.52637 3.81418 1.52815 5.1373C1.52815 7.73687 2.8514 10.0314 4.86145 11.3747C3.67157 11.3371 2.5079 11.0157 1.46748 10.4372C1.46634 10.4686 1.46634 10.5001 1.46634 10.5299C1.46634 14.1614 4.04929 17.1908 7.47818 17.8786C6.83464 18.0528 6.17086 18.1407 5.50418 18.1402C5.01998 18.1402 4.5501 18.0956 4.09337 18.008C5.04747 20.9843 7.81299 23.1511 11.0931 23.2106C8.43877 25.2938 5.16102 26.424 1.78685 26.4191C1.18967 26.4197 0.592988 26.3844 0 26.3138C3.42552 28.5159 7.41284 29.6846 11.4851 29.6803C25.2687 29.6803 32.8052 18.2627 32.8052 8.3613C32.8052 8.03735 32.7973 7.71227 32.783 7.39176C34.2498 6.33195 35.516 5.01905 36.522 3.51474Z" fill="white"/>
</svg>
